<?xml version="1.0" encoding="UTF-8" standalone="no"?>
<!DOCTYPE svg PUBLIC "-//W3C//DTD SVG 1.1//EN" "http://www.w3.org/Graphics/SVG/1.1/DTD/svg11.dtd">
<svg width="100%" height="100%" viewBox="0 0 257 257" version="1.1" xmlns="http://www.w3.org/2000/svg" xmlns:xlink="http://www.w3.org/1999/xlink" xml:space="preserve" xmlns:serif="http://www.serif.com/" style="fill-rule:evenodd;clip-rule:evenodd;stroke-linejoin:round;stroke-miterlimit:1.41421;">
    <g transform="matrix(1,0,0,1,-1.05,1.6547)">
        <g transform="matrix(1,0,0,1,1.69521,0.801234)">
            <g transform="matrix(4.16667,0,0,4.16667,-839,-2576)">
                <path d="M203.721,649.056C203.408,633.412 215.836,620.478 231.478,620.165C247.122,619.852 260.057,632.28 260.369,647.922C260.683,663.566 248.255,676.502 232.611,676.815C216.968,677.127 204.033,664.699 203.721,649.056" style="fill:white;fill-rule:nonzero;"/>
            </g>
            <g transform="matrix(4.16667,0,0,4.16667,-839,-2576)">
                <path d="M232.056,621.034C231.87,621.034 231.682,621.036 231.495,621.04C224.163,621.186 217.327,624.18 212.246,629.468C207.166,634.756 204.449,641.706 204.596,649.038C204.895,664.06 217.526,676.245 232.593,675.939C239.925,675.793 246.762,672.8 251.843,667.511C256.924,662.222 259.641,655.271 259.494,647.939C259.198,633.103 246.889,621.034 232.056,621.034M232.033,677.695C216.253,677.695 203.16,664.855 202.846,649.073C202.689,641.273 205.58,633.88 210.985,628.255C216.389,622.63 223.661,619.446 231.46,619.29C247.504,618.997 260.925,631.926 261.244,647.904C261.4,655.704 258.51,663.097 253.105,668.723C247.7,674.349 240.428,677.533 232.628,677.689C232.43,677.693 232.23,677.695 232.033,677.695" style="fill:rgb(35,31,32);fill-rule:nonzero;"/>
            </g>
        </g>
        <g transform="matrix(0.0154182,0,0,-0.0154182,70.3058,225.543)">
            <path d="M3589,12790C2537,12702 1604,12196 1095,11440C903,11153 789,10876 707,10488C688,10401 664,10332 612,10213C538,10047 513,9972 527,9960C531,9956 572,9928 617,9897C695,9844 700,9842 704,9863C707,9875 716,9930 725,9985C757,10184 888,10508 1025,10725C1161,10942 1374,11181 1575,11343C2041,11719 2659,11958 3335,12024C3577,12048 3742,12052 3950,12040C4433,12013 4717,11946 5048,11783C5431,11595 5805,11265 6138,10821C7257,9325 7406,7449 6548,5626C6491,5506 6443,5426 6296,5211C5655,4275 5386,3864 5157,3473C4823,2901 4594,2423 4422,1935C4389,1842 4335,1688 4301,1595C4236,1409 4193,1306 4135,1190C3983,885 3788,684 3543,579L3465,546L3294,547C2657,552 2004,758 1409,1142C1137,1318 835,1579 615,1830C488,1975 441,2042 376,2169C244,2427 172,2752 169,3102C168,3228 166,3239 158,3190C152,3160 122,3014 89,2865C7,2483 6,2481 6,2320C6,2125 34,2016 124,1865C250,1653 671,1242 1080,931C1540,580 2086,285 2545,137C2865,34 3033,5 3305,5C3525,6 3642,20 3838,70C4245,175 4563,406 4713,705C4736,751 4793,945 4915,1395C5157,2285 5298,2693 5513,3126C5694,3494 5864,3740 6120,4005C6550,4452 6836,4860 7099,5401C7614,6461 7792,7675 7609,8878C7541,9328 7364,9969 7209,10332C6657,11617 5623,12526 4460,12745C4222,12790 3831,12810 3589,12790Z" style="fill-rule:nonzero;"/>
            <path d="M4110,11291C4016,11262 3848,11139 3726,11009C3630,10908 3515,10764 3310,10490C3015,10095 2952,10030 2455,9605C2048,9257 1893,9100 1758,8897C1547,8582 1453,8188 1505,7842C1557,7492 1661,7252 2027,6635C2359,6076 2538,5698 2591,5445C2608,5364 2608,5178 2591,5110C2584,5080 2563,5023 2545,4985C2518,4924 2503,4906 2429,4845C2157,4621 1956,4349 1855,4070C1796,3904 1765,3688 1781,3558C1804,3368 1879,3179 2008,2985C2193,2706 2420,2531 2642,2497C2724,2484 2758,2491 2937,2556C3522,2767 4042,3215 4403,3819C4491,3968 4687,4363 4770,4560C4927,4931 5029,5278 5081,5615C5110,5803 5117,6141 5096,6324C5050,6723 4892,7152 4699,7407C4574,7571 4256,7960 4059,8190C3852,8431 3666,8627 3702,8565C3793,8407 3823,8352 3915,8165C4076,7837 4229,7459 4270,7280C4277,7250 4302,7187 4325,7140C4516,6757 4612,6324 4597,5911C4583,5529 4494,5188 4309,4817C4048,4292 3618,3813 3022,3380C2969,3341 2903,3291 2875,3269C2787,3200 2658,3174 2528,3201C2404,3227 2254,3327 2181,3434C2112,3536 2092,3665 2129,3778C2139,3809 2155,3869 2165,3910C2205,4080 2288,4198 2561,4470C2734,4642 2844,4769 2878,4836C2895,4869 2917,4937 2937,5020C2964,5133 2961,5389 2931,5530C2885,5746 2792,5984 2645,6260C2483,6564 2461,6608 2426,6696C2311,6987 2266,7232 2266,7560C2266,7769 2276,7887 2315,8125C2335,8247 2354,8319 2416,8500C2682,9281 2947,9769 3361,10235C3472,10361 3524,10413 3515,10388C3506,10365 3518,10369 3750,10457C4060,10576 4261,10618 4393,10590C4445,10580 4468,10565 4603,10457C5086,10073 5248,9883 5454,9460C5490,9386 5542,9291 5569,9250C5615,9181 6117,8643 6126,8653C6136,8663 5944,9184 5837,9440C5663,9855 5435,10300 5253,10580C5013,10947 4753,11176 4479,11259C4353,11298 4180,11312 4110,11291Z" style="fill-rule:nonzero;"/>
        </g>
    </g>
</svg>
