<?xml version="1.0" standalone="no"?>
<!DOCTYPE svg PUBLIC "-//W3C//DTD SVG 1.1//EN" "http://www.w3.org/Graphics/SVG/1.1/DTD/svg11.dtd">
<svg width="100%" height="100%" viewBox="0 0 257 253" version="1.1" xmlns="http://www.w3.org/2000/svg" xmlns:xlink="http://www.w3.org/1999/xlink" xml:space="preserve" style="fill-rule:evenodd;clip-rule:evenodd;stroke-linejoin:round;stroke-miterlimit:1.41421;">
    <g transform="matrix(1,0,0,1,-839,-2576)">
        <g id="Layer 1" transform="matrix(4.16667,0,0,4.16667,0,0)">
            <path d="M203.721,649.056C203.408,633.412 215.836,620.478 231.478,620.165C247.122,619.852 260.057,632.28 260.369,647.922C260.683,663.566 248.255,676.502 232.611,676.815C216.968,677.127 204.033,664.699 203.721,649.056" style="fill:white;fill-rule:nonzero;"/>
            <path d="M232.056,621.034C231.87,621.034 231.682,621.036 231.495,621.04C224.163,621.186 217.327,624.18 212.246,629.468C207.166,634.756 204.449,641.706 204.596,649.038C204.895,664.06 217.526,676.245 232.593,675.939C239.925,675.793 246.762,672.8 251.843,667.511C256.924,662.222 259.641,655.271 259.494,647.939C259.198,633.103 246.889,621.034 232.056,621.034M232.033,677.695C216.253,677.695 203.16,664.855 202.846,649.073C202.689,641.273 205.58,633.88 210.985,628.255C216.389,622.63 223.661,619.446 231.46,619.29C247.504,618.997 260.925,631.926 261.244,647.904C261.4,655.704 258.51,663.097 253.105,668.723C247.7,674.349 240.428,677.533 232.628,677.689C232.43,677.693 232.23,677.695 232.033,677.695" style="fill:rgb(35,31,32);fill-rule:nonzero;"/>
            <path d="M220.579,651.099C221.013,653.427 221.587,656.128 221.863,658.235C220.175,657.871 219.044,656.932 217.57,656.348C217.07,654.4 216.715,652.365 216.479,650.44C217.57,650.479 219.2,650.963 220.579,651.099M222.266,658.775C222.15,655.714 221.343,653.369 220.92,650.626C219.187,650.586 217.786,650.204 216.324,649.887C215.861,651.994 216.792,654.617 217.215,656.595C218.839,657.382 220.29,658.349 222.266,658.775" style="fill:rgb(35,31,32);"/>
            <path d="M221.538,657.873C221.33,656.422 221.001,654.727 220.682,653.083C220.567,652.493 220.454,651.91 220.349,651.348C219.747,651.276 219.114,651.149 218.501,651.026C217.882,650.902 217.29,650.784 216.79,650.735C217.038,652.65 217.376,654.469 217.8,656.147C218.328,656.365 218.815,656.627 219.288,656.88M222.551,659.114L222.208,659.041C220.689,658.714 219.465,658.069 218.282,657.447C217.89,657.241 217.498,657.035 217.097,656.84L216.976,656.782L216.948,656.651C216.858,656.229 216.744,655.777 216.626,655.307C216.183,653.543 215.681,651.544 216.057,649.827L216.115,649.561L217.064,649.771C218.257,650.041 219.491,650.32 220.926,650.353L221.154,650.359L221.189,650.585C221.339,651.555 221.54,652.493 221.737,653.4C222.094,655.057 222.463,656.77 222.538,658.764L222.551,659.114Z" style="fill:rgb(35,31,32);fill-rule:nonzero;"/>
            <path d="M241.643,655.708C241.266,656.077 240.682,656.284 240.099,656.472C240.259,655.986 240.595,655.527 241.035,655.5C241.226,655.489 241.43,655.559 241.643,655.708M240.023,654.857C239.976,655.589 239.661,656.463 239.037,656.88C238.946,656.722 238.927,656.472 238.91,656.228C238.893,655.999 238.874,655.762 238.796,655.582C238.979,655.496 239.101,655.366 239.222,655.241C239.415,655.04 239.603,654.852 240.023,654.857M234.477,657.207L234.72,657.191C234.812,657.293 234.849,657.475 234.798,657.602C234.762,657.689 234.691,657.737 234.589,657.744C234.564,657.746 234.538,657.744 234.509,657.741L234.477,657.207ZM244.903,643.748C244.317,643.668 243.711,643.584 243.222,643.397C243.317,642.729 243.635,642.358 244.144,642.328C245.068,642.273 246.302,643.279 246.614,644.104C246.105,643.914 245.496,643.83 244.903,643.748M247.621,648.346C250.394,648.181 253.45,649.987 254.719,651.77C254.242,652.515 253.436,653.023 252.657,653.516C252.366,653.699 252.066,653.889 251.784,654.09C250.225,652.025 247.77,650.645 244.283,649.876C245.159,648.94 246.28,648.425 247.621,648.346M239.109,652.764C240.225,651.797 241.491,650.702 242.941,650.295C243.913,650.023 245.729,650.504 248.126,651.669C249.434,652.305 250.627,653.347 251.182,654.335C250.279,655.357 249.065,656.162 247.89,656.938C247.651,657.098 247.411,657.256 247.172,657.417L246.951,657.225C244.788,655.339 242.551,653.39 238.96,652.892L239.109,652.764ZM239.16,640.3C238.651,641.194 238.123,642.119 238.25,643.56C237.77,643.68 237.307,643.819 236.857,643.953C236.127,644.173 235.372,644.399 234.535,644.547C234.257,642.998 234.535,641.645 235.322,640.731C235.966,639.982 236.942,639.55 238.147,639.479C238.59,639.452 239.069,639.474 239.572,639.542C239.443,639.802 239.299,640.056 239.16,640.3M244.79,640.672C243.375,640.756 242.643,642.248 242.321,643.178C242.003,643.138 241.693,643.127 241.37,643.145C240.908,643.174 240.494,643.258 240.094,643.339C239.65,643.428 239.239,643.513 238.785,643.519C238.618,641.954 239.468,640.42 240.35,639.633C242.132,639.551 244.131,639.465 244.804,640.672L244.79,640.672ZM248.372,647.229C248.006,647.43 247.659,647.621 247.11,647.653C247.037,647.657 246.959,647.658 246.882,647.658C245.628,645.462 243.077,644.59 240.681,643.993C240.813,643.982 240.945,643.973 241.077,643.965C242.66,643.87 247.89,643.805 249.248,646.853C248.904,646.939 248.635,647.086 248.372,647.229M243.045,649.77C241.429,647.479 238.949,645.96 235.473,645.131C236.43,644.688 237.472,644.433 238.574,644.366C241.748,644.179 245.014,645.645 246.365,647.862C245.848,648.461 245.019,648.836 244.216,649.198C243.822,649.376 243.415,649.561 243.045,649.77M237.571,653.549C238.079,653.519 238.635,654.053 238.887,654.586C238.836,654.618 238.8,654.657 238.767,654.694C238.732,654.731 238.702,654.764 238.66,654.781C238.441,654.617 238.152,654.531 237.872,654.447C237.5,654.335 237.149,654.229 236.963,653.96C237.131,653.701 237.335,653.562 237.571,653.549M235.749,657.711C235.768,657.707 235.784,657.697 235.796,657.684C236.075,657.365 236.504,657.149 236.92,656.939C237.359,656.72 237.811,656.492 238.113,656.138C238.188,656.229 238.179,656.444 238.169,656.637C238.159,656.895 238.145,657.16 238.305,657.28C238.078,657.67 237.355,657.988 236.574,658.035C236.021,658.068 235.574,657.96 235.298,657.736C235.426,657.758 235.577,657.75 235.749,657.711M214.934,648.003C215.452,647.849 215.997,647.756 216.596,647.721C217.938,647.641 219.347,647.871 220.708,648.094C221.819,648.274 222.963,648.461 224.085,648.487C228.393,650.877 229.9,658.772 229.484,665.576C228.519,665.45 227.64,664.967 226.789,664.5C226.553,664.37 226.309,664.237 226.074,664.116C223.16,662.628 220.026,660.549 216.76,657.937C216.557,656.963 216.263,655.978 215.979,655.025C215.32,652.809 214.637,650.516 214.934,648.003M215.961,641.169C216.401,642.024 216.857,642.907 217.517,643.569C216.719,643.814 216.251,644.329 215.796,644.827C215.651,644.987 215.502,645.152 215.344,645.305C214.606,643.985 213.78,642.728 212.982,641.51C212.309,640.486 211.614,639.429 210.975,638.341C211.734,638.31 212.256,638.132 212.559,637.801C214.41,638.168 215.164,639.626 215.961,641.169M219.933,641.817C219.084,641.962 218.209,642.11 217.844,642.687C217.068,642.124 216.597,641.213 216.141,640.332C215.404,638.907 214.642,637.437 212.595,637.305C212.783,635.216 215.305,635.05 217.979,634.877C220.045,636.679 221.458,638.937 221.864,641.082C221.513,641.549 220.71,641.687 219.933,641.817M224.167,640.501C223.599,640.638 223.01,640.778 222.381,640.875C221.788,638.284 220.303,636.571 218.866,634.914L218.778,634.812C219.668,634.65 220.337,634.566 221.057,634.523C221.555,634.494 222.046,634.485 222.669,634.476L222.861,634.472C223.163,634.906 223.492,635.321 223.81,635.725C224.776,636.941 225.775,638.202 226.106,640.104C225.417,640.203 224.782,640.355 224.167,640.501M227.971,640.025C227.609,640.064 227.236,640.105 226.882,640.158C226.01,637.793 224.663,635.893 223.438,634.338C226.099,634.383 227.128,636.057 228.217,637.827C228.636,638.508 229.067,639.209 229.596,639.799C229.089,639.903 228.523,639.965 227.971,640.025M232.225,642.169C231.536,641.511 230.933,640.734 230.347,639.981L230.188,639.779C229.805,639.285 229.446,638.758 229.099,638.248C228.683,637.638 228.252,637.007 227.774,636.427C227.725,636.365 227.677,636.307 227.658,636.218L227.918,636.201C229.308,636.66 230.087,637.858 230.988,639.244L231.13,639.463C231.247,639.642 231.383,639.825 231.524,640.019C232.08,640.773 232.653,641.551 232.225,642.169M231.543,648.132C231.439,647.851 231.457,647.57 231.477,647.249C231.494,646.979 231.515,646.677 231.459,646.331C232.3,645.946 233.193,645.725 234.115,645.669C237.616,645.462 240.872,647.634 242.302,649.902C241.704,650.496 240.878,650.931 240.081,651.352C239.415,651.702 238.728,652.063 238.166,652.52C236.968,650.405 234.86,649.008 231.543,648.132M236.79,655.83C236.59,655.99 236.38,656.155 236.14,656.285L236.083,656.268C235.735,656.157 235.403,656.053 235.238,655.785C235.422,655.681 235.61,655.546 235.807,655.403C236.218,655.108 236.643,654.803 237.039,654.779C237.327,654.763 237.576,654.904 237.797,655.212C237.387,655.361 237.085,655.6 236.79,655.83M234.113,656.005C234.58,655.98 234.834,656.173 235.104,656.374C235.238,656.478 235.378,656.581 235.546,656.658C235.505,656.684 235.587,656.791 235.544,656.86C235.463,656.982 235.314,656.976 235.022,656.895C235.002,656.887 234.983,656.881 234.963,656.874C234.508,656.717 234.11,656.579 234.113,656.005M222.248,641.52C222.983,641.826 223.496,642.359 223.868,642.823L223.866,642.823C223.449,642.848 222.983,642.857 222.49,642.866C221.937,642.877 221.365,642.888 220.794,642.923C219.706,642.987 218.892,643.123 218.25,643.348C218.347,642.527 219.289,642.387 220.282,642.238C221.063,642.121 221.87,642.002 222.248,641.52M232.341,644.445C231.75,644.481 231.268,644.612 230.839,644.757C230.034,642.845 228.999,641.449 227.683,640.499C227.727,640.497 227.77,640.494 227.813,640.491C227.932,640.485 228.049,640.479 228.165,640.473C228.751,640.438 229.408,640.382 229.872,640.16C230.994,641.223 231.742,642.718 232.465,644.163L232.602,644.437C232.514,644.437 232.426,644.439 232.341,644.445M232.003,645.016L232.293,645.078C232.011,645.509 231.362,645.61 231.053,645.454C231.135,645.196 231.468,644.916 232.003,645.016M227.794,643.297C226.799,643.122 225.677,642.924 224.597,642.897C224.499,642.441 224.164,642.231 223.841,642.028C223.552,641.846 223.277,641.673 223.173,641.325C223.737,641.26 224.242,641.087 224.73,640.92C225.206,640.758 225.654,640.604 226.093,640.578C226.177,640.573 226.261,640.573 226.339,640.577C227.667,640.654 228.589,641.996 229.331,643.073C229.454,643.251 229.571,643.422 229.685,643.58C229.119,643.53 228.474,643.417 227.794,643.297M228.741,645.66C229.876,645.593 230.538,646.113 230.708,647.211C230.621,647.176 230.537,647.144 230.456,647.11C230.053,646.95 229.706,646.81 229.19,646.789C229.084,646.784 228.973,646.786 228.86,646.793C228.193,646.832 227.516,647.054 226.861,647.27C226.295,647.454 225.763,647.629 225.312,647.655C224.999,647.674 224.75,647.618 224.555,647.485C225.435,646.777 227.307,645.745 228.741,645.66M216.314,646.686C217.588,646.609 219.759,646.919 221.026,647.141C221.475,647.22 221.9,647.294 222.306,647.353C222.484,647.378 222.683,647.384 222.874,647.389C223.427,647.404 223.95,647.418 224.1,647.874C222.581,647.867 220.581,647.574 218.811,647.317L218.152,647.221C218.018,647.202 217.858,647.2 217.688,647.197C217.104,647.191 215.944,647.098 215.867,646.727C216.01,646.709 216.16,646.694 216.314,646.686M221.602,644.107C220.988,644.589 220.354,645.089 220.323,646.074C219.657,646.088 219.065,646.012 218.49,645.938C218.103,645.89 217.702,645.839 217.278,645.815C217.282,644 219.588,643.59 220.976,643.507C221.401,643.481 221.853,643.48 222.292,643.504C222.088,643.725 221.841,643.919 221.602,644.107M224.496,643.525C226.32,643.417 228.383,643.879 229.811,644.292C229.849,644.522 229.983,644.657 230.101,644.776C230.2,644.877 230.289,644.967 230.332,645.102C229.831,644.967 229.334,644.915 228.82,644.946C227.762,645.009 226.802,645.414 225.874,645.805C224.956,646.192 224.087,646.559 223.137,646.615C222.363,646.662 221.622,646.489 220.869,646.087C221.169,644.513 222.389,643.651 224.496,643.525M217.542,644.057C217.563,644.137 217.464,644.261 217.27,644.479C216.976,644.812 216.579,645.26 216.716,645.835C216.611,645.839 216.498,645.85 216.388,645.86C216.3,645.868 216.213,645.877 216.13,645.882C215.987,645.891 215.818,645.892 215.704,645.845C216.13,645.083 216.749,644.481 217.542,644.057M237.684,652.976C237.51,653.07 237.305,653.147 237.107,653.222C236.825,653.328 236.535,653.437 236.31,653.605C236.303,653.531 236.297,653.452 236.289,653.365C236.227,652.624 236.137,651.529 235.953,651.052C236.738,651.065 237.269,652.138 237.659,652.926L237.684,652.976ZM235.351,650.692C235.3,651.223 235.394,651.725 235.496,652.254C235.596,652.78 235.699,653.321 235.679,653.957C235.332,654.002 235.078,654.122 234.832,654.239C234.613,654.342 234.407,654.44 234.136,654.488C234.079,654.283 234.023,654.077 233.968,653.872C233.56,652.368 233.138,650.815 232.541,649.467C233.71,649.55 234.63,649.95 235.351,650.692M234.004,644.686C233.86,644.686 233.768,644.738 233.693,644.785C233.632,644.822 233.583,644.853 233.502,644.858C233.479,644.858 233.456,644.858 233.431,644.855C232.747,643.668 232.62,642.369 233.099,641.46C233.431,640.825 234.049,640.395 234.892,640.208C234.055,641.629 233.756,643.134 234.004,644.686M212.731,642.472C212.993,642.888 213.322,643.329 213.638,643.758C214.337,644.702 215.062,645.678 215.045,646.35C215.038,646.676 214.842,646.967 214.619,647.302C214.325,647.742 214,648.229 214.027,648.909C213.555,648.021 212.945,647.086 212.304,646.104C212.015,645.661 211.718,645.204 211.42,644.732C210.401,643.122 208.516,640.142 209.99,638.541C210.686,639.141 211.311,640.161 212.097,641.444C212.298,641.772 212.508,642.116 212.731,642.472M225.371,648.257C226.312,647.932 227.591,647.495 228.78,647.423C229.52,647.38 230.149,647.485 230.649,647.737C231.402,648.763 233.17,651.472 233.633,654.836C233.686,655.221 233.665,655.609 233.645,656.02C233.623,656.436 233.6,656.866 233.657,657.312C233.705,657.676 233.783,658.008 233.861,658.329C233.983,658.845 234.1,659.332 234.056,659.865C233.846,662.342 232.746,663.987 230.598,665.032C230.281,658.521 229.398,651.476 225.371,648.257M248.64,647.727C249.257,647.403 249.948,647.217 250.693,647.173C253.359,647.014 256.014,648.656 256.971,650.281C256.597,650.894 255.903,651.275 255.215,651.64C253.947,649.834 251.91,648.621 248.64,647.727M244.669,656.239C244.137,655.966 243.609,655.681 243.098,655.404C242.147,654.89 241.168,654.361 240.143,653.894C241.828,654.122 243.559,655.018 244.669,656.239M257.494,649.992C255.959,647.748 253.443,646.596 250.017,646.568C249.682,645.982 249.098,645.601 248.534,645.23C248.143,644.974 247.738,644.708 247.436,644.382C247.154,644.077 246.931,643.739 246.715,643.411C246.269,642.732 245.848,642.092 244.964,641.818C245.206,641.271 245.322,641.114 245.606,640.77C245.626,640.743 245.642,640.715 245.63,640.684C245.041,639.158 243.248,639.147 241.347,639.137C241.08,639.134 240.81,639.133 240.542,639.127C240.229,639.12 239.897,639.069 239.577,639.02C239.198,638.964 238.808,638.903 238.435,638.913C238.341,638.917 238.247,638.92 238.155,638.926C236.462,639.026 234.613,639.624 232.66,640.7C232.211,640.171 231.843,639.54 231.486,638.928C230.585,637.382 229.654,635.783 227.337,635.635C226.414,634.503 225.349,633.885 223.991,633.689C223.985,633.687 223.98,633.687 223.973,633.687L223.482,633.716C223.464,633.718 223.448,633.724 223.435,633.733C223.398,633.76 223.337,633.785 223.263,633.809C222.84,633.833 222.418,633.857 221.995,633.884C221.919,633.87 221.855,633.853 221.816,633.83C221.801,633.821 221.784,633.817 221.766,633.819L221.03,633.863C221.024,633.863 221.019,633.864 221.012,633.865C220.132,634.107 219.051,634.208 217.906,634.313C215.019,634.579 212.035,634.854 211.937,637.474C211.613,637.636 211.2,637.707 210.799,637.775C210.186,637.88 209.551,637.989 209.182,638.425C207.566,640.332 210.476,644.379 211.718,646.107C211.893,646.35 212.031,646.542 212.122,646.679C212.416,647.124 212.665,647.621 212.904,648.101C213.317,648.926 213.707,649.707 214.29,650.156C214.543,651.642 214.821,652.946 215.14,654.14C215.244,654.527 215.334,654.943 215.423,655.346C215.629,656.286 215.843,657.259 216.237,658.035C216.563,658.675 217.668,659.457 218.557,660.086C218.756,660.228 218.944,660.361 219.112,660.484C221.769,662.441 224.845,664.216 228.966,666.109C228.977,666.116 229.082,666.181 229.21,666.197C229.26,666.204 229.283,666.205 229.464,666.166C233.123,665.366 234.833,662.277 234.642,658.58C235.005,658.604 235.367,658.606 235.72,658.586C237.981,658.45 239.663,657.41 241.288,656.402C241.575,656.227 241.869,656.043 242.158,655.87C242.865,655.98 243.627,656.499 244.37,657.003C245.231,657.59 246.123,658.196 246.955,658.174L246.982,658.172C247.65,658.132 248.811,657.314 249.861,656.52C250.51,656.029 251.19,655.52 251.877,655.005C253.907,653.484 256.004,651.914 257.514,650.653C257.532,650.637 257.543,650.615 257.541,650.591L257.507,650.029C257.507,650.016 257.501,650.003 257.494,649.992" style="fill:rgb(35,31,32);"/>
            <path d="M222.588,651.768C222.171,651.747 222.486,651.238 222.54,650.982C223.001,650.905 223.129,651.168 223.419,651.268C223.219,651.497 222.986,651.7 222.588,651.768M223.641,652.945C223.286,652.794 222.98,652.516 222.976,652.082C222.977,651.837 223.27,651.823 223.574,651.822C224.043,652.176 224.076,652.609 223.641,652.945M224.792,653.665C225.039,652.705 224.391,651.93 224.147,651.111C223.449,651.043 222.776,650.344 222.166,650.891C221.73,652.635 222.996,654.218 224.792,653.665" style="fill:rgb(35,31,32);"/>
            <path d="M221.033,634.176C220.127,634.421 219.04,634.521 217.891,634.626C215.026,634.891 212.319,635.141 212.234,637.485L212.226,637.664L212.054,637.75C211.68,637.937 211.24,638.012 210.813,638.086C210.238,638.184 209.694,638.277 209.404,638.618C207.941,640.347 210.861,644.407 211.959,645.936L211.973,645.957C212.144,646.193 212.277,646.379 212.368,646.517C212.673,646.98 212.926,647.484 213.169,647.971C213.566,648.765 213.941,649.515 214.466,649.919L214.562,649.993L214.581,650.108C214.833,651.584 215.11,652.879 215.425,654.067C215.529,654.455 215.621,654.871 215.708,655.272L215.712,655.287C215.914,656.209 216.124,657.162 216.501,657.904C216.792,658.475 217.906,659.264 218.72,659.841C218.928,659.988 219.115,660.12 219.282,660.242C221.968,662.221 225.08,663.997 229.075,665.832L229.108,665.849C229.122,665.859 229.169,665.884 229.213,665.891C229.229,665.889 229.264,665.882 229.343,665.864C232.618,665.15 234.455,662.434 234.255,658.601L234.236,658.244L234.625,658.271C234.972,658.294 235.32,658.296 235.657,658.277C237.825,658.147 239.466,657.13 241.054,656.148C241.342,655.969 241.639,655.785 241.929,655.612L242.042,655.545L242.173,655.566C242.959,655.687 243.756,656.23 244.526,656.754C245.344,657.31 246.188,657.884 246.902,657.864L246.921,657.863C247.564,657.824 249.043,656.704 249.6,656.283C250.249,655.791 250.93,655.282 251.618,654.767C253.602,653.28 255.652,651.744 257.148,650.501L257.126,650.113C255.652,647.998 253.243,646.91 249.964,646.883L249.761,646.883L249.666,646.719C249.371,646.197 248.821,645.837 248.289,645.488C247.881,645.221 247.458,644.944 247.13,644.589C246.829,644.266 246.599,643.916 246.377,643.577C245.945,642.921 245.572,642.355 244.806,642.118L244.466,642.013L244.602,641.706C244.837,641.181 244.963,640.986 245.213,640.676C244.655,639.472 243.096,639.462 241.297,639.451C241.026,639.45 240.755,639.447 240.486,639.443C240.146,639.434 239.804,639.382 239.472,639.332C239.109,639.277 238.735,639.22 238.394,639.229C238.304,639.233 238.217,639.236 238.127,639.24C236.491,639.337 234.693,639.919 232.786,640.969L232.528,641.113L232.344,640.896C231.877,640.346 231.502,639.703 231.14,639.08C230.242,637.54 229.394,636.086 227.264,635.949L227.11,635.94L227.018,635.826C226.157,634.773 225.171,634.193 223.916,634.005L223.523,634.028C223.469,634.057 223.403,634.083 223.322,634.108L223.281,634.12L221.924,634.201L221.88,634.194C221.797,634.178 221.729,634.16 221.671,634.137L221.033,634.176ZM229.243,666.515C229.187,666.52 229.147,666.514 229.113,666.51C228.932,666.486 228.795,666.41 228.751,666.385C224.726,664.537 221.575,662.739 218.851,660.731C218.688,660.612 218.503,660.482 218.308,660.343C217.383,659.687 216.241,658.88 215.882,658.172C215.471,657.364 215.255,656.374 215.044,655.417L215.374,655.337L215.041,655.403C214.953,655.006 214.863,654.598 214.762,654.221C214.45,653.046 214.177,651.77 213.927,650.321C213.341,649.822 212.956,649.051 212.55,648.238C212.312,647.764 212.068,647.277 211.783,646.846C211.699,646.717 211.568,646.535 211.403,646.305L211.387,646.284C210.105,644.5 207.101,640.322 208.867,638.239C209.319,637.706 210.05,637.581 210.694,637.471C210.998,637.419 211.309,637.365 211.563,637.273C211.809,634.56 215.004,634.266 217.829,634.005C218.956,633.901 220.021,633.803 220.871,633.57C220.903,633.561 220.935,633.555 220.966,633.554L221.701,633.51C221.79,633.505 221.874,633.524 221.948,633.565C221.946,633.564 221.957,633.567 221.978,633.572L223.151,633.502C223.177,633.492 223.187,633.488 223.187,633.488C223.248,633.443 223.331,633.413 223.418,633.407L223.909,633.379C223.941,633.377 223.972,633.378 224.003,633.383C225.409,633.587 226.516,634.209 227.474,635.337C229.863,635.56 230.86,637.269 231.742,638.781C232.043,639.297 232.352,639.828 232.707,640.29C234.611,639.28 236.42,638.716 238.091,638.616C238.187,638.611 238.283,638.607 238.382,638.605C238.787,638.593 239.195,638.655 239.588,638.715C239.899,638.762 240.218,638.811 240.508,638.818C240.774,638.823 241.042,638.824 241.309,638.826C243.241,638.838 245.239,638.85 245.907,640.579C245.934,640.652 245.963,640.799 245.831,640.958C245.624,641.209 245.517,641.348 245.366,641.653C246.143,642.005 246.558,642.637 246.961,643.25C247.17,643.569 247.386,643.896 247.65,644.182C247.927,644.479 248.313,644.733 248.687,644.979C249.234,645.336 249.796,645.703 250.172,646.262C253.622,646.332 256.167,647.531 257.738,649.827C257.778,649.884 257.799,649.947 257.803,650.012L257.836,650.574C257.844,650.692 257.792,650.805 257.695,650.886C256.179,652.154 254.078,653.727 252.046,655.249C251.359,655.764 250.679,656.273 250.032,656.764C248.884,657.632 247.718,658.442 246.954,658.487L246.922,658.488C245.967,658.515 245.026,657.875 244.117,657.258C243.456,656.809 242.775,656.345 242.178,656.206C241.929,656.356 241.676,656.512 241.432,656.663C239.767,657.695 238.047,658.761 235.693,658.901C235.448,658.914 235.2,658.919 234.95,658.911C235.03,662.833 232.963,665.715 229.494,666.473C229.365,666.501 229.3,666.512 229.243,666.515" style="fill:rgb(35,31,32);fill-rule:nonzero;"/>
        </g>
    </g>
</svg>
